<svg width="3124" height="3124" viewBox="0 0 3124 3124" fill="none" xmlns="http://www.w3.org/2000/svg">
    <path d="M2442.44 1334.57V2142.28C2442.44 2353.61 2442.44 2459.27 2401.32 2539.98C2365.14 2610.98 2307.42 2668.7 2236.42 2704.87C2155.7 2746 2050.04 2746 1838.71 2746H1285.29C1073.96 2746 968.299 2746 887.583 2704.87C816.583 2668.7 758.859 2610.98 722.682 2539.98C681.556 2459.27 681.556 2353.61 681.556 2142.28V1334.49M2694 1614.03L2010.62 854.85C1855.2 682.19 1777.5 595.861 1685.97 563.99C1605.59 535.997 1518.1 536.003 1437.72 564.008C1346.2 595.892 1268.51 682.234 1113.12 854.917L430 1614.03"
          stroke="white" stroke-width="182" stroke-linecap="round" stroke-linejoin="round"/>
    <path fill="white"
          d="M1860.88 2288.51C1861.97 2330.15 1855.48 2367.75 1841.42 2401.28C1827.37 2434.82 1806.83 2461.32 1779.8 2480.79C1752.78 2500.26 1721.42 2510 1685.75 2510C1664.13 2510 1647.37 2503.78 1635.48 2491.34C1623.05 2478.9 1616.83 2464.84 1616.83 2449.15C1616.83 2433.46 1622.5 2420.75 1633.86 2411.02C1644.67 2401.28 1656.83 2396.41 1670.34 2396.41C1683.86 2396.41 1695.21 2395.6 1704.4 2393.98C1713.05 2392.36 1721.15 2388.3 1728.72 2381.81C1743.86 2369.37 1751.42 2337.73 1751.42 2286.88C1751.42 2259.3 1745.75 2235.77 1734.4 2216.3C1723.05 2196.83 1706.83 2187.09 1685.75 2187.09C1671.69 2187.09 1658.18 2198.45 1645.21 2221.17C1636.56 2236.85 1623.05 2271.74 1604.67 2325.83C1585.21 2384.78 1562.77 2429.14 1537.37 2458.89C1511.42 2488.63 1476.29 2503.51 1431.96 2503.51C1397.91 2503.51 1368.18 2493.77 1342.77 2474.3C1317.37 2454.83 1297.91 2429.41 1284.4 2398.04C1270.88 2366.12 1264.12 2332.32 1264.12 2296.62C1263.04 2259.84 1268.99 2224.41 1281.96 2190.34C1294.94 2156.26 1313.58 2128.94 1337.91 2108.39C1361.69 2087.3 1388.72 2076.75 1418.99 2076.75C1435.21 2076.75 1449.26 2082.7 1461.15 2094.6C1472.5 2106.5 1478.18 2120.29 1478.18 2135.98C1478.18 2146.79 1474.94 2157.34 1468.45 2167.62C1461.96 2177.89 1453.86 2184.39 1444.13 2187.09C1431.15 2190.34 1421.15 2195.2 1414.13 2201.69C1407.1 2207.64 1400.61 2215.76 1394.67 2226.03C1387.1 2239.56 1381.69 2251.73 1378.45 2262.54C1375.21 2273.36 1373.58 2288.78 1373.58 2308.79C1373.58 2332.59 1378.18 2352.33 1387.37 2368.02C1396.02 2383.16 1407.37 2390.73 1421.42 2390.73C1439.26 2390.73 1453.86 2382.08 1465.21 2364.77C1476.56 2346.92 1487.37 2322.04 1497.64 2290.13C1518.18 2228.47 1534.13 2187.36 1545.48 2166.81C1564.4 2132.73 1584.4 2108.66 1605.48 2094.6C1626.56 2080.53 1653.05 2073.5 1684.94 2073.5C1718.99 2073.5 1749.26 2083.78 1775.75 2104.33C1802.78 2124.89 1823.86 2151.93 1838.99 2185.47C1853.59 2218.46 1860.88 2252.81 1860.88 2288.51Z"/>
    <path fill="white"
          d="M1854.4 1597.72C1854.4 1677.77 1853.59 1787.03 1851.97 1925.5C1851.97 1936.32 1848.99 1946.32 1843.05 1955.52C1836.56 1964.17 1828.72 1970.66 1819.53 1974.99C1809.8 1981.48 1799.26 1984.73 1787.91 1984.73C1768.99 1984.19 1692.78 1984.46 1559.26 1985.54C1461.96 1986.08 1385.48 1983.64 1329.8 1978.24C1322.77 1977.69 1316.29 1976.07 1310.34 1973.37C1299.53 1969.04 1290.88 1962.28 1284.4 1953.08C1277.37 1943.89 1273.58 1933.34 1273.04 1921.44C1272.5 1881.96 1272.23 1828.68 1272.23 1761.61C1272.77 1694.54 1272.77 1641.26 1272.23 1601.78C1272.23 1587.17 1276.02 1575.54 1283.58 1566.89C1291.15 1557.69 1300.61 1551.47 1311.96 1548.23C1322.77 1544.98 1333.85 1544.71 1345.21 1547.42C1356.02 1550.12 1365.21 1556.07 1372.77 1565.27C1380.34 1573.92 1384.13 1585.55 1384.13 1600.15C1384.13 1630.44 1383.85 1675.61 1383.31 1735.65C1383.31 1795.69 1383.58 1840.85 1384.13 1871.14C1417.1 1872.76 1456.02 1873.84 1500.88 1874.38C1500.34 1848.42 1500.07 1768.37 1500.07 1634.23C1500.07 1619.09 1503.86 1607.19 1511.42 1598.53C1518.99 1589.34 1528.45 1583.39 1539.8 1580.68C1550.61 1577.44 1561.69 1577.44 1573.05 1580.68C1583.86 1583.39 1593.05 1589.34 1600.61 1598.53C1608.18 1607.19 1611.96 1619.09 1611.96 1634.23C1611.96 1768.91 1612.23 1848.69 1612.77 1873.57C1673.32 1872.49 1716.02 1872.22 1740.88 1872.76C1741.96 1762.96 1742.51 1671.28 1742.51 1597.72C1742.51 1583.12 1746.29 1571.49 1753.86 1562.83C1761.42 1553.64 1770.88 1547.69 1782.24 1544.98C1793.05 1541.74 1804.13 1541.74 1815.48 1544.98C1826.29 1547.69 1835.48 1553.64 1843.05 1562.83C1850.61 1571.49 1854.4 1583.12 1854.4 1597.72Z"/>
    <path fill="white"
          d="M1860.88 1268C1861.97 1309.65 1855.48 1347.24 1841.42 1380.78C1827.37 1414.31 1806.83 1440.82 1779.8 1460.29C1752.78 1479.76 1721.42 1489.5 1685.75 1489.5C1664.13 1489.5 1647.37 1483.28 1635.48 1470.84C1623.05 1458.4 1616.83 1444.33 1616.83 1428.65C1616.83 1412.96 1622.5 1400.25 1633.86 1390.51C1644.67 1380.78 1656.83 1375.91 1670.34 1375.91C1683.86 1375.91 1695.21 1375.1 1704.4 1373.48C1713.05 1371.85 1721.15 1367.8 1728.72 1361.31C1743.86 1348.87 1751.42 1317.22 1751.42 1266.38C1751.42 1238.79 1745.75 1215.27 1734.4 1195.79C1723.05 1176.32 1706.83 1166.59 1685.75 1166.59C1671.69 1166.59 1658.18 1177.95 1645.21 1200.66C1636.56 1216.35 1623.05 1251.24 1604.67 1305.32C1585.21 1364.28 1562.77 1408.63 1537.37 1438.38C1511.42 1468.13 1476.29 1483.01 1431.96 1483.01C1397.91 1483.01 1368.18 1473.27 1342.77 1453.8C1317.37 1434.33 1297.91 1408.9 1284.4 1377.53C1270.88 1345.62 1264.12 1311.81 1264.12 1276.12C1263.04 1239.34 1268.99 1203.91 1281.96 1169.83C1294.94 1135.76 1313.58 1108.44 1337.91 1087.89C1361.69 1066.79 1388.72 1056.25 1418.99 1056.25C1435.21 1056.25 1449.26 1062.2 1461.15 1074.09C1472.5 1085.99 1478.18 1099.79 1478.18 1115.47C1478.18 1126.29 1474.94 1136.84 1468.45 1147.11C1461.96 1157.39 1453.86 1163.88 1444.13 1166.59C1431.15 1169.83 1421.15 1174.7 1414.13 1181.19C1407.1 1187.14 1400.61 1195.25 1394.67 1205.53C1387.1 1219.05 1381.69 1231.22 1378.45 1242.04C1375.21 1252.86 1373.58 1268.27 1373.58 1288.29C1373.58 1312.09 1378.18 1331.83 1387.37 1347.51C1396.02 1362.66 1407.37 1370.23 1421.42 1370.23C1439.26 1370.23 1453.86 1361.58 1465.21 1344.27C1476.56 1326.42 1487.37 1301.54 1497.64 1269.63C1518.18 1207.96 1534.13 1166.86 1545.48 1146.3C1564.4 1112.23 1584.4 1088.16 1605.48 1074.09C1626.56 1060.03 1653.05 1053 1684.94 1053C1718.99 1053 1749.26 1063.28 1775.75 1083.83C1802.78 1104.38 1823.86 1131.43 1838.99 1164.96C1853.59 1197.96 1860.88 1232.3 1860.88 1268Z"/>
</svg>
